<svg xmlns="http://www.w3.org/2000/svg" xmlns:xlink="http://www.w3.org/1999/xlink" width="72" zoomAndPan="magnify" viewBox="0 0 54 54" height="72" preserveAspectRatio="xMidYMid meet" version="1.2"><defs><clipPath id="4ec00eca6e"><path d="M 0.492188 0 L 53.507812 0 L 53.507812 53.019531 L 0.492188 53.019531 Z M 0.492188 0 "/></clipPath><filter x="0%" y="0%" width="100%" filterUnits="objectBoundingBox" id="9f45b7e32b" height="100%"><feColorMatrix values="0 0 0 0 1 0 0 0 0 1 0 0 0 0 1 0 0 0 1 0" type="matrix" in="SourceGraphic"/></filter><clipPath id="33149d56b3"><path d="M 0.492188 0 L 53.507812 0 L 53.507812 53.019531 L 0.492188 53.019531 Z M 0.492188 0 "/></clipPath><clipPath id="56b2c16422"><path d="M 8.589844 0 L 45.410156 0 C 47.558594 0 49.617188 0.851562 51.136719 2.371094 C 52.65625 3.890625 53.507812 5.953125 53.507812 8.101562 L 53.507812 44.917969 C 53.507812 47.066406 52.65625 49.125 51.136719 50.644531 C 49.617188 52.164062 47.558594 53.019531 45.410156 53.019531 L 8.589844 53.019531 C 6.441406 53.019531 4.382812 52.164062 2.863281 50.644531 C 1.34375 49.125 0.492188 47.066406 0.492188 44.917969 L 0.492188 8.101562 C 0.492188 5.953125 1.34375 3.890625 2.863281 2.371094 C 4.382812 0.851562 6.441406 0 8.589844 0 Z M 8.589844 0 "/></clipPath><clipPath id="4b5e235792"><rect x="0" width="54" y="0" height="54"/></clipPath><clipPath id="22c6b22ad3"><path d="M 14 17 L 25.605469 17 L 25.605469 29 L 14 29 Z M 14 17 "/></clipPath><clipPath id="d33a3673c2"><path d="M 0.226562 1 L 21 1 L 21 30.472656 L 0.226562 30.472656 Z M 0.226562 1 "/></clipPath><clipPath id="efa3a25a0f"><rect x="0" width="26" y="0" height="31"/></clipPath></defs><g id="a443bb0fe6"><g clip-rule="nonzero" clip-path="url(#4ec00eca6e)"><g mask="url(#d429bff166)" transform="matrix(1,0,0,1,0.000000000000000056,-0.000000000000014165)"><g clip-path="url(#4b5e235792)"><g clip-rule="nonzero" clip-path="url(#33149d56b3)"><g clip-rule="nonzero" clip-path="url(#56b2c16422)"><path style=" stroke:none;fill-rule:nonzero;fill:#ff66c4;fill-opacity:1;" d="M 0.492188 0 L 53.507812 0 L 53.507812 53.019531 L 0.492188 53.019531 Z M 0.492188 0 "/></g></g></g><mask id="d429bff166"><g filter="url(#9f45b7e32b)"><rect x="0" width="54" y="0" height="54" style="fill:#000000;fill-opacity:0.5;stroke:none;"/></g></mask></g></g><g mask="url(#5abb2eb983)" transform="matrix(1,0,0,1,14,11)"><g clip-path="url(#efa3a25a0f)"><g clip-rule="nonzero" clip-path="url(#22c6b22ad3)"><path style=" stroke:none;fill-rule:nonzero;fill:#ff66c4;fill-opacity:1;" d="M 24.609375 22.175781 L 21.195312 22.175781 L 21.195312 18.761719 C 21.195312 18.632812 21.171875 18.507812 21.121094 18.390625 C 21.074219 18.269531 21.003906 18.164062 20.910156 18.074219 C 20.820312 17.980469 20.714844 17.910156 20.59375 17.863281 C 20.476562 17.8125 20.351562 17.789062 20.222656 17.789062 C 20.09375 17.789062 19.96875 17.8125 19.847656 17.863281 C 19.730469 17.910156 19.625 17.980469 19.53125 18.074219 C 19.441406 18.164062 19.371094 18.269531 19.320312 18.390625 C 19.269531 18.507812 19.246094 18.632812 19.246094 18.761719 L 19.246094 22.175781 L 15.832031 22.175781 C 15.703125 22.175781 15.578125 22.203125 15.457031 22.25 C 15.339844 22.300781 15.234375 22.371094 15.140625 22.460938 C 15.050781 22.554688 14.980469 22.660156 14.929688 22.777344 C 14.882812 22.898438 14.855469 23.023438 14.855469 23.152344 C 14.855469 23.28125 14.882812 23.40625 14.929688 23.527344 C 14.980469 23.644531 15.050781 23.75 15.140625 23.84375 C 15.234375 23.933594 15.339844 24.003906 15.457031 24.054688 C 15.578125 24.101562 15.703125 24.128906 15.832031 24.128906 L 19.246094 24.128906 L 19.246094 27.542969 C 19.246094 27.671875 19.269531 27.796875 19.320312 27.914062 C 19.371094 28.035156 19.441406 28.140625 19.53125 28.230469 C 19.625 28.324219 19.730469 28.394531 19.847656 28.441406 C 19.96875 28.492188 20.09375 28.515625 20.222656 28.515625 C 20.351562 28.515625 20.476562 28.492188 20.59375 28.441406 C 20.714844 28.394531 20.820312 28.324219 20.910156 28.230469 C 21.003906 28.140625 21.074219 28.035156 21.121094 27.914062 C 21.171875 27.796875 21.195312 27.671875 21.195312 27.542969 L 21.195312 24.128906 L 24.609375 24.128906 C 24.738281 24.128906 24.863281 24.101562 24.984375 24.054688 C 25.101562 24.003906 25.207031 23.933594 25.300781 23.84375 C 25.390625 23.75 25.460938 23.644531 25.511719 23.527344 C 25.5625 23.40625 25.585938 23.28125 25.585938 23.152344 C 25.585938 23.023438 25.5625 22.898438 25.511719 22.777344 C 25.460938 22.660156 25.390625 22.554688 25.300781 22.460938 C 25.207031 22.371094 25.101562 22.300781 24.984375 22.25 C 24.863281 22.203125 24.738281 22.175781 24.609375 22.175781 Z M 24.609375 22.175781 "/></g><g clip-rule="nonzero" clip-path="url(#d33a3673c2)"><path style=" stroke:none;fill-rule:nonzero;fill:#ff66c4;fill-opacity:1;" d="M 12.90625 28.515625 L 3.152344 28.515625 C 3.023438 28.515625 2.898438 28.492188 2.78125 28.441406 C 2.660156 28.394531 2.554688 28.324219 2.464844 28.230469 C 2.371094 28.140625 2.300781 28.035156 2.25 27.914062 C 2.203125 27.796875 2.175781 27.671875 2.175781 27.542969 C 2.179688 26.835938 2.246094 26.140625 2.386719 25.449219 C 2.523438 24.757812 2.726562 24.089844 2.996094 23.4375 C 3.265625 22.785156 3.597656 22.167969 3.988281 21.582031 C 4.378906 21 4.824219 20.457031 5.324219 19.957031 C 5.820312 19.460938 6.363281 19.015625 6.949219 18.625 C 7.535156 18.234375 8.152344 17.902344 8.800781 17.632812 C 9.453125 17.363281 10.125 17.160156 10.8125 17.019531 C 11.503906 16.882812 12.203125 16.8125 12.90625 16.8125 C 13.21875 16.8125 13.527344 16.796875 13.835938 16.761719 C 14.144531 16.722656 14.453125 16.667969 14.753906 16.597656 C 15.058594 16.523438 15.355469 16.433594 15.644531 16.328125 C 15.9375 16.21875 16.222656 16.09375 16.5 15.953125 C 16.777344 15.808594 17.042969 15.652344 17.300781 15.476562 C 17.558594 15.304688 17.808594 15.117188 18.042969 14.914062 C 18.277344 14.707031 18.5 14.492188 18.710938 14.261719 C 18.921875 14.03125 19.117188 13.792969 19.296875 13.539062 C 19.476562 13.285156 19.644531 13.023438 19.792969 12.75 C 19.941406 12.476562 20.074219 12.195312 20.191406 11.90625 C 20.308594 11.617188 20.40625 11.324219 20.488281 11.023438 C 20.570312 10.722656 20.632812 10.417969 20.675781 10.109375 C 20.722656 9.800781 20.746094 9.492188 20.753906 9.179688 C 20.761719 8.871094 20.753906 8.558594 20.722656 8.25 C 20.695312 7.941406 20.644531 7.632812 20.582031 7.328125 C 20.515625 7.023438 20.429688 6.726562 20.328125 6.429688 C 20.226562 6.136719 20.109375 5.851562 19.972656 5.570312 C 19.835938 5.289062 19.683594 5.019531 19.515625 4.757812 C 19.347656 4.496094 19.167969 4.246094 18.96875 4.003906 C 18.769531 3.765625 18.558594 3.535156 18.332031 3.320312 C 18.109375 3.105469 17.871094 2.90625 17.621094 2.71875 C 17.371094 2.535156 17.113281 2.363281 16.84375 2.207031 C 16.574219 2.050781 16.296875 1.914062 16.011719 1.789062 C 15.722656 1.667969 15.433594 1.5625 15.132812 1.476562 C 14.835938 1.386719 14.53125 1.316406 14.226562 1.265625 C 13.917969 1.214844 13.609375 1.179688 13.296875 1.167969 C 12.988281 1.152344 12.675781 1.15625 12.367188 1.179688 C 12.054688 1.199219 11.746094 1.242188 11.441406 1.300781 C 11.136719 1.359375 10.835938 1.4375 10.539062 1.53125 C 10.242188 1.628906 9.953125 1.738281 9.671875 1.871094 C 9.386719 2 9.113281 2.144531 8.847656 2.308594 C 8.582031 2.46875 8.328125 2.648438 8.082031 2.839844 C 7.839844 3.03125 7.605469 3.238281 7.386719 3.460938 C 7.167969 3.679688 6.960938 3.914062 6.769531 4.15625 C 6.578125 4.402344 6.402344 4.65625 6.238281 4.925781 C 6.078125 5.191406 5.933594 5.464844 5.804688 5.746094 C 5.675781 6.03125 5.5625 6.320312 5.46875 6.617188 C 5.375 6.914062 5.300781 7.214844 5.242188 7.523438 C 5.183594 7.828125 5.144531 8.136719 5.121094 8.445312 C 5.101562 8.757812 5.097656 9.066406 5.113281 9.378906 C 5.128906 9.6875 5.164062 9.996094 5.214844 10.304688 C 5.265625 10.609375 5.339844 10.914062 5.425781 11.210938 C 5.515625 11.511719 5.621094 11.800781 5.746094 12.085938 C 5.867188 12.375 6.007812 12.652344 6.164062 12.921875 C 6.320312 13.1875 6.492188 13.449219 6.679688 13.695312 C 6.867188 13.945312 7.070312 14.179688 7.285156 14.40625 C 7.5 14.628906 7.726562 14.839844 7.96875 15.039062 C 8.207031 15.234375 8.460938 15.417969 8.722656 15.585938 C 8.105469 15.800781 7.511719 16.0625 6.933594 16.371094 C 6.359375 16.679688 5.808594 17.027344 5.289062 17.421875 C 4.765625 17.8125 4.277344 18.242188 3.824219 18.710938 C 3.367188 19.179688 2.949219 19.679688 2.574219 20.210938 C 2.195312 20.742188 1.859375 21.300781 1.566406 21.886719 C 1.273438 22.46875 1.03125 23.074219 0.832031 23.695312 C 0.632812 24.316406 0.480469 24.949219 0.378906 25.59375 C 0.277344 26.238281 0.226562 26.886719 0.226562 27.542969 C 0.226562 27.929688 0.300781 28.300781 0.449219 28.660156 C 0.597656 29.019531 0.808594 29.335938 1.082031 29.609375 C 1.359375 29.882812 1.675781 30.097656 2.03125 30.246094 C 2.390625 30.394531 2.765625 30.46875 3.152344 30.46875 L 12.90625 30.46875 C 13.035156 30.46875 13.160156 30.441406 13.28125 30.394531 C 13.398438 30.34375 13.503906 30.273438 13.597656 30.183594 C 13.6875 30.089844 13.757812 29.984375 13.808594 29.863281 C 13.855469 29.746094 13.882812 29.621094 13.882812 29.492188 C 13.882812 29.363281 13.855469 29.238281 13.808594 29.117188 C 13.757812 29 13.6875 28.894531 13.597656 28.800781 C 13.503906 28.710938 13.398438 28.640625 13.28125 28.589844 C 13.160156 28.542969 13.035156 28.515625 12.90625 28.515625 Z M 7.054688 9.007812 C 7.054688 8.625 7.089844 8.246094 7.167969 7.867188 C 7.242188 7.492188 7.351562 7.125 7.5 6.769531 C 7.648438 6.414062 7.828125 6.078125 8.039062 5.757812 C 8.253906 5.4375 8.496094 5.144531 8.769531 4.871094 C 9.039062 4.601562 9.335938 4.355469 9.65625 4.144531 C 9.972656 3.929688 10.3125 3.75 10.667969 3.601562 C 11.023438 3.457031 11.386719 3.34375 11.765625 3.269531 C 12.140625 3.195312 12.523438 3.15625 12.90625 3.15625 C 13.289062 3.15625 13.671875 3.195312 14.046875 3.269531 C 14.425781 3.34375 14.789062 3.457031 15.144531 3.601562 C 15.5 3.75 15.839844 3.929688 16.15625 4.144531 C 16.476562 4.355469 16.773438 4.601562 17.042969 4.871094 C 17.316406 5.144531 17.558594 5.4375 17.773438 5.757812 C 17.984375 6.078125 18.164062 6.414062 18.3125 6.769531 C 18.460938 7.125 18.570312 7.492188 18.644531 7.867188 C 18.722656 8.246094 18.757812 8.625 18.757812 9.007812 C 18.757812 9.394531 18.722656 9.773438 18.644531 10.152344 C 18.570312 10.527344 18.460938 10.894531 18.3125 11.25 C 18.164062 11.605469 17.984375 11.941406 17.773438 12.261719 C 17.558594 12.582031 17.316406 12.875 17.042969 13.148438 C 16.773438 13.417969 16.476562 13.660156 16.15625 13.875 C 15.839844 14.089844 15.5 14.269531 15.144531 14.417969 C 14.789062 14.5625 14.425781 14.675781 14.046875 14.75 C 13.671875 14.824219 13.289062 14.863281 12.90625 14.863281 C 12.523438 14.863281 12.140625 14.824219 11.765625 14.75 C 11.386719 14.671875 11.023438 14.5625 10.667969 14.414062 C 10.3125 14.265625 9.976562 14.085938 9.65625 13.875 C 9.335938 13.660156 9.042969 13.417969 8.769531 13.144531 C 8.5 12.875 8.253906 12.578125 8.042969 12.257812 C 7.828125 11.941406 7.648438 11.601562 7.5 11.25 C 7.355469 10.894531 7.242188 10.527344 7.167969 10.152344 C 7.09375 9.773438 7.054688 9.394531 7.054688 9.007812 Z M 7.054688 9.007812 "/></g></g><mask id="5abb2eb983"><g filter="url(#9f45b7e32b)"><rect x="0" width="54" y="0" height="54" style="fill:#000000;fill-opacity:0.6;stroke:none;"/></g></mask></g></g></svg>