<svg width="72" height="72" viewBox="0 0 72 72" fill="none" xmlns="http://www.w3.org/2000/svg">
<rect width="72" height="72" rx="10" fill="#E5A718" fill-opacity="0.3"/>
<path d="M38.35 35.9998L43.85 30.5165C44.0054 30.3611 44.1286 30.1766 44.2127 29.9736C44.2968 29.7705 44.3401 29.5529 44.3401 29.3332C44.3401 29.1134 44.2968 28.8958 44.2127 28.6927C44.1286 28.4897 44.0054 28.3052 43.85 28.1498C43.6946 27.9944 43.5101 27.8712 43.307 27.7871C43.104 27.703 42.8864 27.6597 42.6666 27.6597C42.4469 27.6597 42.2292 27.703 42.0262 27.7871C41.8232 27.8712 41.6387 27.9944 41.4833 28.1498L34.8166 34.8165C34.6604 34.9714 34.5364 35.1558 34.4518 35.3589C34.3672 35.562 34.3236 35.7798 34.3236 35.9998C34.3236 36.2198 34.3672 36.4377 34.4518 36.6408C34.5364 36.8439 34.6604 37.0282 34.8166 37.1832L41.4833 43.8498C41.6382 44.006 41.8226 44.13 42.0257 44.2146C42.2288 44.2993 42.4466 44.3428 42.6666 44.3428C42.8866 44.3428 43.1045 44.2993 43.3076 44.2146C43.5107 44.13 43.695 44.006 43.85 43.8498C44.0062 43.6949 44.1302 43.5105 44.2148 43.3074C44.2994 43.1043 44.343 42.8865 44.343 42.6665C44.343 42.4465 44.2994 42.2286 44.2148 42.0255C44.1302 41.8224 44.0062 41.6381 43.85 41.4832L38.35 35.9998ZM29.3333 27.6665C28.8913 27.6665 28.4673 27.8421 28.1548 28.1546C27.8422 28.4672 27.6666 28.8911 27.6666 29.3332V42.6665C27.6666 43.1085 27.8422 43.5324 28.1548 43.845C28.4673 44.1576 28.8913 44.3332 29.3333 44.3332C29.7753 44.3332 30.1992 44.1576 30.5118 43.845C30.8244 43.5324 31 43.1085 31 42.6665V29.3332C31 28.8911 30.8244 28.4672 30.5118 28.1546C30.1992 27.8421 29.7753 27.6665 29.3333 27.6665Z" fill="#E5A718"/>
</svg>
