<svg xmlns="http://www.w3.org/2000/svg" xmlns:xlink="http://www.w3.org/1999/xlink" width="72" zoomAndPan="magnify" viewBox="0 0 54 54" height="72" preserveAspectRatio="xMidYMid meet" version="1.2"><defs><clipPath id="855d1b7609"><path d="M 0.492188 0 L 53.507812 0 L 53.507812 53.019531 L 0.492188 53.019531 Z M 0.492188 0 "/></clipPath><filter x="0%" y="0%" width="100%" filterUnits="objectBoundingBox" id="d01210301c" height="100%"><feColorMatrix values="0 0 0 0 1 0 0 0 0 1 0 0 0 0 1 0 0 0 1 0" type="matrix" in="SourceGraphic"/></filter><clipPath id="d44c568ccd"><path d="M 0.492188 0 L 53.507812 0 L 53.507812 53.019531 L 0.492188 53.019531 Z M 0.492188 0 "/></clipPath><clipPath id="456fd00a05"><path d="M 8.589844 0 L 45.410156 0 C 47.558594 0 49.617188 0.851562 51.136719 2.371094 C 52.65625 3.890625 53.507812 5.953125 53.507812 8.101562 L 53.507812 44.917969 C 53.507812 47.066406 52.65625 49.125 51.136719 50.644531 C 49.617188 52.164062 47.558594 53.019531 45.410156 53.019531 L 8.589844 53.019531 C 6.441406 53.019531 4.382812 52.164062 2.863281 50.644531 C 1.34375 49.125 0.492188 47.066406 0.492188 44.917969 L 0.492188 8.101562 C 0.492188 5.953125 1.34375 3.890625 2.863281 2.371094 C 4.382812 0.851562 6.441406 0 8.589844 0 Z M 8.589844 0 "/></clipPath><clipPath id="8341c59e6a"><rect x="0" width="54" y="0" height="54"/></clipPath><clipPath id="639760ced8"><path d="M 12 11.414062 L 42 11.414062 L 42 41.605469 L 12 41.605469 Z M 12 11.414062 "/></clipPath></defs><g id="8fd489b645"><g clip-rule="nonzero" clip-path="url(#855d1b7609)"><g mask="url(#6ce1518f11)" transform="matrix(1,0,0,1,0.000000000000000056,-0.000000000000014165)"><g clip-path="url(#8341c59e6a)"><g clip-rule="nonzero" clip-path="url(#d44c568ccd)"><g clip-rule="nonzero" clip-path="url(#456fd00a05)"><path style=" stroke:none;fill-rule:nonzero;fill:#3c2d97;fill-opacity:1;" d="M 0.492188 0 L 53.507812 0 L 53.507812 53.019531 L 0.492188 53.019531 Z M 0.492188 0 "/></g></g></g><mask id="6ce1518f11"><g filter="url(#d01210301c)"><rect x="0" width="54" y="0" height="54" style="fill:#000000;fill-opacity:0.71;stroke:none;"/></g></mask></g></g><g clip-rule="nonzero" clip-path="url(#639760ced8)"><path style=" stroke:none;fill-rule:nonzero;fill:#1b00c0;fill-opacity:1;" d="M 36.234375 12.40625 C 33.402344 11.402344 30.128906 12.019531 27.863281 14.28125 C 25.597656 16.546875 24.980469 19.824219 25.984375 22.652344 L 13.25 35.386719 C 11.902344 36.738281 11.902344 38.910156 13.25 40.257812 C 14.601562 41.605469 16.773438 41.605469 18.121094 40.257812 L 30.855469 27.523438 C 33.683594 28.527344 36.960938 27.910156 39.226562 25.648438 C 41.492188 23.382812 42.109375 20.105469 41.101562 17.277344 L 37.332031 21.046875 C 35.984375 22.394531 33.8125 22.394531 32.460938 21.046875 C 31.113281 19.699219 31.113281 17.527344 32.460938 16.175781 Z M 36.234375 12.40625 "/></g></g></svg>