<svg width="72" height="72" viewBox="0 0 72 72" fill="none" xmlns="http://www.w3.org/2000/svg">
<rect width="72" height="72" rx="10" fill="#22DC35" fill-opacity="0.3"/>
<path d="M36 19.3335C31.7274 19.3457 27.6225 20.9984 24.5334 23.9502V21.0002C24.5334 20.5581 24.3578 20.1342 24.0452 19.8217C23.7327 19.5091 23.3087 19.3335 22.8667 19.3335C22.4247 19.3335 22.0008 19.5091 21.6882 19.8217C21.3756 20.1342 21.2 20.5581 21.2 21.0002V28.5002C21.2 28.9422 21.3756 29.3661 21.6882 29.6787C22.0008 29.9912 22.4247 30.1668 22.8667 30.1668H30.3667C30.8087 30.1668 31.2327 29.9912 31.5452 29.6787C31.8578 29.3661 32.0334 28.9422 32.0334 28.5002C32.0334 28.0581 31.8578 27.6342 31.5452 27.3217C31.2327 27.0091 30.8087 26.8335 30.3667 26.8335H26.3667C28.5097 24.5941 31.3659 23.1713 34.4443 22.8096C37.5226 22.448 40.6308 23.1701 43.2345 24.8519C45.8381 26.5337 47.7744 29.07 48.7106 32.0248C49.6467 34.9796 49.5242 38.1682 48.3641 41.0425C47.2039 43.9167 45.0786 46.297 42.3536 47.774C39.6286 49.251 36.4742 49.7325 33.4326 49.1357C30.3911 48.5389 27.6525 46.9011 25.6877 44.5038C23.7229 42.1066 22.6547 39.0997 22.6667 36.0002C22.6667 35.5581 22.4911 35.1342 22.1786 34.8217C21.866 34.5091 21.4421 34.3335 21 34.3335C20.558 34.3335 20.1341 34.5091 19.8215 34.8217C19.509 35.1342 19.3334 35.5581 19.3334 36.0002C19.3334 39.2965 20.3109 42.5188 22.1422 45.2597C23.9736 48.0005 26.5765 50.1367 29.622 51.3982C32.6674 52.6596 36.0185 52.9897 39.2515 52.3466C42.4846 51.7035 45.4543 50.1162 47.7852 47.7853C50.116 45.4544 51.7034 42.4847 52.3465 39.2517C52.9896 36.0187 52.6595 32.6675 51.398 29.6221C50.1366 26.5767 48.0004 23.9737 45.2595 22.1423C42.5187 20.311 39.2964 19.3335 36 19.3335ZM36 29.3335C35.558 29.3335 35.1341 29.5091 34.8215 29.8217C34.509 30.1342 34.3334 30.5581 34.3334 31.0002V36.0002C34.3334 36.4422 34.509 36.8661 34.8215 37.1787C35.1341 37.4912 35.558 37.6668 36 37.6668H39.3334C39.7754 37.6668 40.1993 37.4912 40.5119 37.1787C40.8244 36.8661 41 36.4422 41 36.0002C41 35.5581 40.8244 35.1342 40.5119 34.8217C40.1993 34.5091 39.7754 34.3335 39.3334 34.3335H37.6667V31.0002C37.6667 30.5581 37.4911 30.1342 37.1786 29.8217C36.866 29.5091 36.4421 29.3335 36 29.3335Z" fill="#22DC35"/>
</svg>
