<svg width="30" height="30" viewBox="0 0 30 30" fill="none" xmlns="http://www.w3.org/2000/svg">
<path d="M25 10C25 10 25 8.75 23.75 7.5C22.5 6.25 21.375 6.25 21.375 6.25L20 7.625V5H5V25H20V15L25 10ZM12.875 19.25L12.125 18.5L12.5 17.125L14.375 19L12.875 19.25ZM14 16.875L13.25 16.125L19.75 9.625C20 9.75 20.25 10 20.5 10.25L14 16.875ZM22.625 8.125L21.5 9.375C21.25 9.125 21 9 20.75 8.75L21.875 7.625C22 7.75 22.25 7.875 22.625 8.125ZM18.75 23.75H6.25V6.25H18.75V8.875L11.375 16.25L10 21.375L15.125 20L18.75 16.25V23.75Z" fill="#1C2E45" fill-opacity="0.6"/>
</svg>
