<svg width="72" height="72" viewBox="0 0 72 72" fill="none" xmlns="http://www.w3.org/2000/svg">
<rect width="72" height="72" rx="10" fill="#E1EE30" fill-opacity="0.3"/>
<path d="M26.4848 28.2726H27.2424V29.0301C27.2424 29.432 27.402 29.8174 27.6862 30.1015C27.9703 30.3857 28.3557 30.5453 28.7575 30.5453C29.1594 30.5453 29.5448 30.3857 29.8289 30.1015C30.1131 29.8174 30.2727 29.432 30.2727 29.0301V28.2726H31.0303C31.4321 28.2726 31.8175 28.1129 32.1016 27.8288C32.3858 27.5446 32.5454 27.1593 32.5454 26.7574C32.5454 26.3556 32.3858 25.9702 32.1016 25.686C31.8175 25.4019 31.4321 25.2423 31.0303 25.2423H30.2727V24.4847C30.2727 24.0828 30.1131 23.6975 29.8289 23.4133C29.5448 23.1292 29.1594 22.9695 28.7575 22.9695C28.3557 22.9695 27.9703 23.1292 27.6862 23.4133C27.402 23.6975 27.2424 24.0828 27.2424 24.4847V25.2423H26.4848C26.083 25.2423 25.6976 25.4019 25.4134 25.686C25.1293 25.9702 24.9697 26.3556 24.9697 26.7574C24.9697 27.1593 25.1293 27.5446 25.4134 27.8288C25.6976 28.1129 26.083 28.2726 26.4848 28.2726ZM25.5454 45.1211C25.8293 45.4033 26.2133 45.5616 26.6136 45.5616C27.0139 45.5616 27.3979 45.4033 27.6818 45.1211L28.7575 44.0453L29.8333 45.1211C30.1172 45.4033 30.5012 45.5616 30.9015 45.5616C31.3018 45.5616 31.6858 45.4033 31.9697 45.1211C32.2519 44.8372 32.4103 44.4532 32.4103 44.0529C32.4103 43.6526 32.2519 43.2686 31.9697 42.9847L30.8939 41.9089L31.9697 40.8332C32.2179 40.5433 32.3476 40.1705 32.3329 39.7892C32.3181 39.4078 32.16 39.0461 31.8902 38.7763C31.6204 38.5064 31.2586 38.3483 30.8773 38.3336C30.496 38.3189 30.1231 38.4486 29.8333 38.6968L28.7575 39.7726L27.6818 38.6968C27.3919 38.4486 27.0191 38.3189 26.6378 38.3336C26.2564 38.3483 25.8947 38.5064 25.6249 38.7763C25.355 39.0461 25.1969 39.4078 25.1822 39.7892C25.1675 40.1705 25.2972 40.5433 25.5454 40.8332L26.6212 41.9089L25.5454 42.9847C25.2632 43.2686 25.1048 43.6526 25.1048 44.0529C25.1048 44.4532 25.2632 44.8372 25.5454 45.1211ZM48.4545 17.6665H24.2121C23.0066 17.6665 21.8504 18.1454 20.998 18.9978C20.1455 19.8503 19.6666 21.0064 19.6666 22.212V46.4544C19.6666 47.6599 20.1455 48.8161 20.998 49.6685C21.8504 50.5209 23.0066 50.9998 24.2121 50.9998H48.4545C49.66 50.9998 50.8162 50.5209 51.6686 49.6685C52.5211 48.8161 53 47.6599 53 46.4544V22.212C53 21.0064 52.5211 19.8503 51.6686 18.9978C50.8162 18.1454 49.66 17.6665 48.4545 17.6665ZM34.8181 47.9695H24.2121C23.8102 47.9695 23.4249 47.8099 23.1407 47.5258C22.8566 47.2416 22.6969 46.8562 22.6969 46.4544V35.8483H34.8181V47.9695ZM34.8181 32.818H22.6969V22.212C22.6969 21.8101 22.8566 21.4247 23.1407 21.1406C23.4249 20.8564 23.8102 20.6968 24.2121 20.6968H34.8181V32.818ZM49.9697 46.4544C49.9697 46.8562 49.81 47.2416 49.5259 47.5258C49.2417 47.8099 48.8563 47.9695 48.4545 47.9695H37.8484V35.8483H49.9697V46.4544ZM49.9697 32.818H37.8484V20.6968H48.4545C48.8563 20.6968 49.2417 20.8564 49.5259 21.1406C49.81 21.4247 49.9697 21.8101 49.9697 22.212V32.818ZM41.6363 41.1514H46.1818C46.5836 41.1514 46.969 40.9917 47.2532 40.7076C47.5373 40.4234 47.6969 40.038 47.6969 39.6362C47.6969 39.2344 47.5373 38.849 47.2532 38.5648C46.969 38.2807 46.5836 38.121 46.1818 38.121H41.6363C41.2345 38.121 40.8491 38.2807 40.565 38.5648C40.2808 38.849 40.1212 39.2344 40.1212 39.6362C40.1212 40.038 40.2808 40.4234 40.565 40.7076C40.8491 40.9917 41.2345 41.1514 41.6363 41.1514ZM46.1818 25.2423H41.6363C41.2345 25.2423 40.8491 25.4019 40.565 25.686C40.2808 25.9702 40.1212 26.3556 40.1212 26.7574C40.1212 27.1593 40.2808 27.5446 40.565 27.8288C40.8491 28.1129 41.2345 28.2726 41.6363 28.2726H46.1818C46.5836 28.2726 46.969 28.1129 47.2532 27.8288C47.5373 27.5446 47.6969 27.1593 47.6969 26.7574C47.6969 26.3556 47.5373 25.9702 47.2532 25.686C46.969 25.4019 46.5836 25.2423 46.1818 25.2423ZM41.6363 45.6968H46.1818C46.5836 45.6968 46.969 45.5372 47.2532 45.253C47.5373 44.9689 47.6969 44.5835 47.6969 44.1817C47.6969 43.7798 47.5373 43.3944 47.2532 43.1103C46.969 42.8261 46.5836 42.6665 46.1818 42.6665H41.6363C41.2345 42.6665 40.8491 42.8261 40.565 43.1103C40.2808 43.3944 40.1212 43.7798 40.1212 44.1817C40.1212 44.5835 40.2808 44.9689 40.565 45.253C40.8491 45.5372 41.2345 45.6968 41.6363 45.6968Z" fill="#E1EE30"/>
</svg>
