<svg width="72" height="72" viewBox="0 0 72 72" fill="none" xmlns="http://www.w3.org/2000/svg">
<rect width="72" height="72" rx="10" fill="#9747FF" fill-opacity="0.3"/>
<path d="M26 54.3332H19.3333C19.1144 54.3332 18.8977 54.2902 18.6954 54.2064C18.4932 54.1227 18.3094 53.9999 18.1547 53.8451C17.9999 53.6904 17.8771 53.5066 17.7934 53.3044C17.7096 53.1021 17.6666 52.8854 17.6666 52.6665V39.3332C17.6666 39.1143 17.7096 38.8975 17.7934 38.6953C17.8771 38.4931 17.9999 38.3093 18.1547 38.1545C18.3094 37.9998 18.4932 37.877 18.6954 37.7933C18.8977 37.7095 19.1144 37.6664 19.3333 37.6665H26C26.2188 37.6664 26.4356 37.7095 26.6378 37.7933C26.8401 37.877 27.0238 37.9998 27.1786 38.1545C27.3334 38.3093 27.4561 38.4931 27.5399 38.6953C27.6236 38.8975 27.6667 39.1143 27.6666 39.3332V52.6665C27.6667 52.8854 27.6236 53.1021 27.5399 53.3044C27.4561 53.5066 27.3334 53.6904 27.1786 53.8451C27.0238 53.9999 26.8401 54.1227 26.6378 54.2064C26.4356 54.2902 26.2188 54.3332 26 54.3332Z" fill="#9747FF"/>
<path d="M39.3333 54.3332H32.6667C32.4478 54.3332 32.231 54.2902 32.0288 54.2064C31.8266 54.1227 31.6428 53.9999 31.488 53.8451C31.3333 53.6904 31.2105 53.5066 31.1268 53.3044C31.043 53.1021 30.9999 52.8854 31 52.6665V19.3332C30.9999 19.1143 31.043 18.8975 31.1268 18.6953C31.2105 18.4931 31.3333 18.3093 31.488 18.1545C31.6428 17.9998 31.8266 17.877 32.0288 17.7933C32.231 17.7095 32.4478 17.6664 32.6667 17.6665H39.3333C39.5522 17.6664 39.769 17.7095 39.9712 17.7933C40.1734 17.877 40.3572 17.9998 40.512 18.1545C40.6667 18.3093 40.7895 18.4931 40.8732 18.6953C40.957 18.8975 41.0001 19.1143 41 19.3332V52.6665C41.0001 52.8854 40.957 53.1021 40.8732 53.3044C40.7895 53.5066 40.6667 53.6904 40.512 53.8451C40.3572 53.9999 40.1734 54.1227 39.9712 54.2064C39.769 54.2902 39.5522 54.3332 39.3333 54.3332Z" fill="#9747FF" fill-opacity="0.5"/>
<path d="M52.6667 54.3333H46C45.7812 54.3334 45.5644 54.2903 45.3622 54.2066C45.1599 54.1228 44.9762 54.0001 44.8214 53.8453C44.6666 53.6905 44.5439 53.5068 44.4601 53.3045C44.3764 53.1023 44.3333 52.8856 44.3334 52.6667V32.6667C44.3333 32.4478 44.3764 32.231 44.4601 32.0288C44.5439 31.8266 44.6666 31.6428 44.8214 31.488C44.9762 31.3333 45.1599 31.2105 45.3622 31.1268C45.5644 31.043 45.7812 30.9999 46 31H52.6667C52.8856 30.9999 53.1023 31.043 53.3046 31.1268C53.5068 31.2105 53.6906 31.3333 53.8453 31.488C54.0001 31.6428 54.1229 31.8266 54.2066 32.0288C54.2904 32.231 54.3334 32.4478 54.3334 32.6667V52.6667C54.3334 52.8856 54.2904 53.1023 54.2066 53.3045C54.1229 53.5068 54.0001 53.6905 53.8453 53.8453C53.6906 54.0001 53.5068 54.1228 53.3046 54.2066C53.1023 54.2903 52.8856 54.3334 52.6667 54.3333Z" fill="#9747FF" fill-opacity="0.75"/>
</svg>
