<svg width="72" height="72" viewBox="0 0 72 72" fill="none" xmlns="http://www.w3.org/2000/svg">
<rect width="72" height="72" rx="10" fill="#30B7EE" fill-opacity="0.3"/>
<path d="M49.3334 29.3333L39.3334 20.5667C38.4167 19.7468 37.2299 19.2935 36 19.2935C34.7701 19.2935 33.5834 19.7468 32.6667 20.5667L22.6667 29.3333C22.1373 29.8068 21.7149 30.3876 21.4275 31.0371C21.1401 31.6866 20.9944 32.3898 21 33.1V47.6667C21 48.9928 21.5268 50.2645 22.4645 51.2022C23.4022 52.1399 24.674 52.6667 26 52.6667H46C47.3261 52.6667 48.5979 52.1399 49.5356 51.2022C50.4733 50.2645 51 48.9928 51 47.6667V33.0833C51.0033 32.3759 50.8565 31.6759 50.5691 31.0295C50.2818 30.383 49.8606 29.8049 49.3334 29.3333ZM39.3334 49.3333H32.6667V41C32.6667 40.558 32.8423 40.1341 33.1549 39.8215C33.4674 39.5089 33.8913 39.3333 34.3334 39.3333H37.6667C38.1087 39.3333 38.5327 39.5089 38.8452 39.8215C39.1578 40.1341 39.3334 40.558 39.3334 41V49.3333ZM47.6667 47.6667C47.6667 48.1087 47.4911 48.5326 47.1785 48.8452C46.866 49.1578 46.4421 49.3333 46 49.3333H42.6667V41C42.6667 39.6739 42.1399 38.4022 41.2022 37.4645C40.2646 36.5268 38.9928 36 37.6667 36H34.3334C33.0073 36 31.7355 36.5268 30.7978 37.4645C29.8602 38.4022 29.3334 39.6739 29.3334 41V49.3333H26C25.558 49.3333 25.1341 49.1578 24.8215 48.8452C24.509 48.5326 24.3334 48.1087 24.3334 47.6667V33.0833C24.3337 32.8467 24.3844 32.6128 24.4821 32.3973C24.5798 32.1818 24.7223 31.9895 24.9 31.8333L34.9 23.0833C35.2042 22.8161 35.5952 22.6688 36 22.6688C36.4049 22.6688 36.7959 22.8161 37.1 23.0833L47.1 31.8333C47.2778 31.9895 47.4203 32.1818 47.518 32.3973C47.6157 32.6128 47.6664 32.8467 47.6667 33.0833V47.6667Z" fill="#30B7EE"/>
</svg>
