<svg width="50" height="50" viewBox="0 0 50 50" fill="none" xmlns="http://www.w3.org/2000/svg">
<path d="M41.4582 26.375C41.1242 25.9948 40.94 25.506 40.94 25C40.94 24.4939 41.1242 24.0052 41.4582 23.625L44.1249 20.625C44.4187 20.2972 44.6012 19.8848 44.6461 19.4469C44.691 19.009 44.5961 18.5681 44.3749 18.1875L40.2082 10.9792C39.9892 10.599 39.6559 10.2976 39.2556 10.1181C38.8553 9.93852 38.4086 9.8899 37.979 9.97915L34.0624 10.7708C33.564 10.8738 33.0452 10.7908 32.6038 10.5375C32.1624 10.2842 31.829 9.87807 31.6665 9.39582L30.3957 5.58332C30.2559 5.16952 29.9897 4.81012 29.6345 4.55591C29.2794 4.30169 28.8533 4.16552 28.4165 4.16665H20.0832C19.6289 4.14294 19.1793 4.26858 18.8031 4.52439C18.4269 4.7802 18.1448 5.15211 17.9999 5.58332L16.8332 9.39582C16.6707 9.87807 16.3373 10.2842 15.8959 10.5375C15.4546 10.7908 14.9357 10.8738 14.4374 10.7708L10.4165 9.97915C10.0093 9.92161 9.59424 9.98587 9.22351 10.1638C8.85277 10.3418 8.54299 10.6255 8.3332 10.9792L4.16653 18.1875C3.93978 18.5638 3.83783 19.0022 3.87525 19.44C3.91266 19.8778 4.08754 20.2926 4.37486 20.625L7.0207 23.625C7.3547 24.0052 7.53889 24.4939 7.53889 25C7.53889 25.506 7.3547 25.9948 7.0207 26.375L4.37486 29.375C4.08754 29.7074 3.91266 30.1221 3.87525 30.5599C3.83783 30.9977 3.93978 31.4361 4.16653 31.8125L8.3332 39.0208C8.55215 39.401 8.88553 39.7023 9.28581 39.8819C9.68608 40.0615 10.1328 40.1101 10.5624 40.0208L14.479 39.2291C14.9774 39.1262 15.4962 39.2092 15.9376 39.4625C16.379 39.7158 16.7124 40.1219 16.8749 40.6041L18.1457 44.4166C18.2907 44.8479 18.5728 45.2198 18.949 45.4756C19.3251 45.7314 19.7747 45.857 20.229 45.8333H28.5624C28.9991 45.8344 29.4252 45.6983 29.7803 45.4441C30.1355 45.1898 30.4018 44.8304 30.5415 44.4166L31.8124 40.6041C31.9749 40.1219 32.3083 39.7158 32.7496 39.4625C33.191 39.2092 33.7098 39.1262 34.2082 39.2291L38.1249 40.0208C38.5544 40.1101 39.0011 40.0615 39.4014 39.8819C39.8017 39.7023 40.1351 39.401 40.354 39.0208L44.5207 31.8125C44.7419 31.4319 44.8368 30.991 44.7919 30.5531C44.747 30.1152 44.5645 29.7028 44.2707 29.375L41.4582 26.375ZM38.354 29.1667L40.0207 31.0416L37.354 35.6667L34.8957 35.1666C33.3952 34.8599 31.8344 35.1148 30.5094 35.8829C29.1845 36.651 28.1877 37.8788 27.7082 39.3333L26.9165 41.6666H21.5832L20.8332 39.2917C20.3537 37.8372 19.3569 36.6093 18.032 35.8412C16.707 35.0732 15.1462 34.8183 13.6457 35.125L11.1874 35.625L8.47903 31.0208L10.1457 29.1458C11.1706 27.9999 11.7372 26.5165 11.7372 24.9792C11.7372 23.4418 11.1706 21.9584 10.1457 20.8125L8.47903 18.9375L11.1457 14.3542L13.604 14.8542C15.1045 15.1609 16.6653 14.906 17.9903 14.1379C19.3152 13.3698 20.3121 12.142 20.7915 10.6875L21.5832 8.33332H26.9165L27.7082 10.7083C28.1877 12.1628 29.1845 13.3906 30.5094 14.1587C31.8344 14.9268 33.3952 15.1817 34.8957 14.875L37.354 14.375L40.0207 19L38.354 20.875C37.3406 22.0182 36.7811 23.4931 36.7811 25.0208C36.7811 26.5486 37.3406 28.0234 38.354 29.1667ZM24.2499 16.6667C22.6017 16.6667 20.9905 17.1554 19.6201 18.0711C18.2497 18.9867 17.1816 20.2882 16.5509 21.811C15.9201 23.3337 15.7551 25.0092 16.0767 26.6257C16.3982 28.2422 17.1919 29.7271 18.3573 30.8925C19.5227 32.058 21.0076 32.8517 22.6241 33.1732C24.2406 33.4947 25.9162 33.3297 27.4389 32.699C28.9616 32.0683 30.2631 31.0001 31.1788 29.6297C32.0945 28.2593 32.5832 26.6482 32.5832 25C32.5832 22.7898 31.7052 20.6702 30.1424 19.1074C28.5796 17.5446 26.46 16.6667 24.2499 16.6667ZM24.2499 29.1667C23.4258 29.1667 22.6202 28.9223 21.935 28.4644C21.2498 28.0066 20.7157 27.3559 20.4004 26.5945C20.085 25.8331 20.0025 24.9954 20.1633 24.1871C20.324 23.3789 20.7209 22.6364 21.3036 22.0537C21.8863 21.471 22.6287 21.0742 23.437 20.9134C24.2452 20.7526 25.083 20.8351 25.8444 21.1505C26.6057 21.4659 27.2565 21.9999 27.7143 22.6851C28.1722 23.3703 28.4165 24.1759 28.4165 25C28.4165 26.1051 27.9775 27.1649 27.1961 27.9463C26.4147 28.7277 25.3549 29.1667 24.2499 29.1667Z" fill="white"/>
</svg>
